<svg width="48" height="48" viewBox="0 0 48 48" fill="none" xmlns="http://www.w3.org/2000/svg">
<circle cx="24" cy="24" r="24" fill="#0E76A8"/>
<path d="M31.8779 25.6031V31.3477H28.5818V25.9876C28.5818 24.6408 28.1049 23.7222 26.9122 23.7222C26.0015 23.7222 25.4591 24.3419 25.221 24.9406C25.134 25.1546 25.1116 25.4528 25.1116 25.7525V31.3477H21.814C21.814 31.3477 21.8587 22.2703 21.814 21.3291H25.1116V22.7491L25.09 22.7818H25.1116V22.7491C25.5492 22.0679 26.3313 21.094 28.0826 21.094C30.2515 21.094 31.8779 22.5264 31.8779 25.6031ZM18.3653 16.5C17.2381 16.5 16.5 17.2474 16.5 18.2306C16.5 19.1921 17.2165 19.962 18.3222 19.962H18.3437C19.4941 19.962 20.2083 19.1921 20.2083 18.2306C20.1883 17.2474 19.4948 16.5 18.3661 16.5H18.3653ZM16.6957 31.3477H19.9918V21.3291H16.6957V31.3477Z" fill="white"/>
</svg>
