<svg width="40" height="31" viewBox="0 0 40 31" fill="none" xmlns="http://www.w3.org/2000/svg">
<path d="M34.5352 0.48459C28.9177 -1.13994 24.5301 1.29686 22.5659 8.14575C20.2528 16.213 25.3012 25.591 32.7912 31L33.3419 30.317C29.0645 26.551 26.7514 19.296 28.5872 12.8717C29.3766 13.4624 30.2945 13.9608 31.6163 14.3485C34.7004 15.2346 38.5739 13.3701 39.7121 9.40107C40.9604 5.08129 37.9497 1.463 34.5352 0.46613V0.48459Z" fill="#4C8D2E"/>
<path d="M12.5352 0.48459C6.91766 -1.13994 2.53015 1.29686 0.565865 8.14575C-1.74722 16.213 3.30118 25.591 10.7912 31L11.3419 30.317C7.06453 26.551 4.75144 19.296 6.58722 12.8717C7.37661 13.4624 8.2945 13.9608 9.61626 14.3485C12.7004 15.2346 16.5739 13.3701 17.7121 9.40107C18.9604 5.08129 15.9497 1.463 12.5352 0.46613V0.48459Z" fill="#4C8D2E"/>
</svg>
