<svg width="48" height="48" viewBox="0 0 48 48" fill="none" xmlns="http://www.w3.org/2000/svg">
<circle cx="24" cy="24" r="24" fill="#1D9BF0"/>
<path d="M32.8724 18.6993C32.2519 18.9865 31.5853 19.1805 30.8846 19.2682C31.6076 18.8163 32.1486 18.1052 32.4064 17.2674C31.7272 17.6888 30.9837 17.9854 30.2084 18.1444C29.6871 17.563 28.9965 17.1776 28.244 17.0481C27.4914 16.9186 26.719 17.0522 26.0466 17.4282C25.3742 17.8042 24.8395 18.4016 24.5255 19.1275C24.2114 19.8534 24.1356 20.6673 24.3099 21.4428C22.9334 21.3706 21.5869 20.997 20.3577 20.3461C19.1285 19.6952 18.0441 18.7817 17.1748 17.6647C16.8776 18.2003 16.7067 18.8211 16.7067 19.4824C16.7063 20.0777 16.8467 20.6638 17.1153 21.1888C17.3839 21.7139 17.7724 22.1615 18.2463 22.4921C17.6967 22.4739 17.1591 22.3187 16.6784 22.0397V22.0862C16.6784 22.9211 16.9549 23.7303 17.461 24.3765C17.9672 25.0227 18.6718 25.4661 19.4553 25.6315C18.9454 25.7756 18.4108 25.7968 17.8919 25.6936C18.1129 26.4119 18.5436 27.0401 19.1234 27.4902C19.7033 27.9402 20.4034 28.1897 21.1258 28.2035C19.8996 29.2089 18.3852 29.7542 16.8263 29.7518C16.5502 29.7519 16.2743 29.735 16 29.7014C17.5824 30.764 19.4244 31.3279 21.3056 31.3258C27.6738 31.3258 31.1551 25.817 31.1551 21.0393C31.1551 20.884 31.1514 20.7273 31.1447 20.572C31.8219 20.0606 32.4064 19.4272 32.8709 18.7016L32.8724 18.6993Z" fill="white"/>
</svg>
